<?xml version="1.0" encoding="UTF-8" standalone="no"?>
<svg width="140px" height="26px" viewBox="0 0 140 26" version="1.1" xmlns="http://www.w3.org/2000/svg" xmlns:xlink="http://www.w3.org/1999/xlink">
    <!-- Generator: Sketch 48.2 (47327) - http://www.bohemiancoding.com/sketch -->
    <title>SOLIDWORKS_Logotype_White</title>
    <desc>Created with Sketch.</desc>
    <defs>
        <polygon id="path-1" points="0.0105882353 0.0815598139 0.0105882353 25.1745455 139.273588 25.1745455 139.273588 0.0815175758 0.0105882353 0.0815175758 19.603594 0.0815598139 19.603594 25.1745464 6.19972311e-05 25.1745464 6.19972311e-05 0.0815598139 0.0105882353 0.0815598139"></polygon>
        <polygon id="path-3" points="29.1559412 11.3824909 29.1559412 0.138716883 0.107647059 0.138716883 0.107647059 11.3824909 29.1559412 11.3824909"></polygon>
    </defs>
    <g id="StickerSheet_Blocks_Menu" stroke="none" stroke-width="1" fill="none" fill-rule="evenodd" transform="translate(-2036.000000, -2185.000000)">
        <g id="Brand-Menu---Tablet" transform="translate(1988.000000, 1860.000000)">
            <g id="Brand-Menu---Tablet-Dropdown" transform="translate(0.000000, 254.000000)">
                <g id="Menu" transform="translate(0.000000, 56.000000)">
                    <g id="SOLIDWORKS_Logotype_White" transform="translate(48.000000, 15.000000)">
                        <g id="Group-4">
                            <mask id="mask-2" fill="white">
                                <use xlink:href="#path-1"></use>
                            </mask>
                            <g id="Clip-2"></g>
                        </g>
                        <path d="M24.0610588,8.68641697 C25.3106471,8.88438823 26.3288824,9.03766182 26.5628824,9.50022268 C26.8252941,10.0246068 25.4645294,10.0564603 24.7787647,10.0687906 C21.4916471,10.1246199 19.5095294,10.1813055 19.4103529,11.1608864 C19.2811765,12.4220113 20.8150588,13.6915276 22.3297059,15.4718989 C23.7132353,17.0967702 25.2864706,18.7000634 24.8327647,20.1959794 C24.2678824,22.0585532 21.6640588,22.4524407 19.1851765,22.4529545 C16.8104118,22.454667 14.5607647,22.1205477 13.6157647,21.9559713 C12.4387059,21.7521773 12.6135882,21.2420074 12.9277059,21.0777735 C13.2776471,20.8947015 15.279,20.8900776 16.6701176,20.8176365 C17.8147059,20.7587247 21.1392353,20.760266 21.6573529,20.0132499 C22.293,19.0990885 20.7368824,17.5339853 19.3078235,15.8948997 C17.5249412,13.8497676 15.5662941,11.7387022 16.6027059,10.1965472 C17.9440588,8.2015929 21.8678824,8.33842597 24.0610588,8.68641697" id="Fill-5" fill="#FFFFFE"></path>
                        <path d="M13.5171176,0.0957317749 C16.0014706,-0.0109603463 18.9412941,0.469411082 19.4890588,2.0602026 C20.3865882,4.66739498 15.8366471,8.46909385 11.8717059,10.3352641 C10.9000588,10.7926873 10.3108235,10.9182175 10.0653529,10.887049 C9.831,10.8575931 9.79482353,10.6455789 9.87105882,10.499498 C10.0124118,10.2254894 10.6514118,9.6668542 11.5076471,9.05975377 C15.9707647,5.89649506 17.4218824,3.5761555 16.5792353,2.63544952 C16.0387059,2.03314424 13.7761765,1.61476727 11.4268235,1.61476727 C10.7888824,1.61476727 9.11294118,1.74903152 8.94088235,1.21317333 C8.80058824,0.774245714 11.0502353,0.201396364 13.5171176,0.0957317749" id="Fill-1" fill="#FFFFFE"></path>
                        <path d="M7.96482353,11.9801723 C10.0295294,11.8755352 12.5377059,12.1889326 13.9464706,13.1263848 C14.6468824,13.591857 15.1394118,14.4491616 14.8542353,15.4318251 C14.0412353,18.2205482 11.0064706,21.5946223 4.26282353,24.187258 C2.11852941,25.0118528 0.432529412,25.327134 0.0787058824,25.105872 C-0.301764706,24.8681695 0.804176471,23.0278589 1.137,22.4168196 C2.21347059,20.4388196 3.55852941,18.51271 4.86970588,16.749293 C5.35270588,16.1000637 6.09811765,14.9747444 6.77311765,15.0648248 C7.37752941,15.1453148 6.66952941,16.3417051 6.204,17.1022504 C5.42170588,18.378617 3.26682353,21.9241177 3.97764706,22.1357894 C5.54911765,22.6046868 12.9225882,17.7263051 11.8353529,15.0089955 C11.3313529,13.7482132 8.12982353,13.6279919 6.11382353,13.6279919 C5.19652941,13.6279919 3.19358824,13.8163728 3.08276471,13.205676 C2.96329412,12.6422457 6.12582353,12.0747053 7.96482353,11.9801723" id="Fill-3" fill="#FFFFFE"></path>
                        <path d="M52.7062941,17.0837548 C52.2684706,19.6940298 51.0333529,21.0174916 48.6838235,21.0174916 C46.3369412,21.0174916 45.5537647,19.6940298 45.9975882,17.0837548 C46.4364706,14.4746786 47.6668235,13.1496755 50.0195294,13.1496755 C52.3678235,13.1496755 53.1474706,14.4746786 52.7062941,17.0837548 Z M50.3447647,11.2218533 C46.2031765,11.2218533 43.9794706,13.894979 43.4362941,17.0837548 C42.9026471,20.2759557 44.2192941,22.9436012 48.3621176,22.9436012 C52.4978824,22.9436012 54.7252941,20.2759557 55.2672353,17.0837548 C55.8072353,13.894979 54.4854706,11.2218533 50.3447647,11.2218533 L50.3447647,11.2218533 Z" id="Fill-6" fill="#FFFFFE"></path>
                        <path d="M33.9024706,13.6733745 C33.7567059,14.5707529 34.0420588,15.640928 35.0770588,16.3442739 L38.7818824,18.8524807 C39.1752353,19.1126177 39.3628235,19.289867 39.3167647,19.5933316 C39.2486471,20.0122223 39.0218824,20.1860466 38.2551176,20.1860466 L33.9483529,20.1860466 C33.4909412,20.1860466 33.2380588,20.3984033 33.1524706,20.9063468 L33.1524706,22.4639148 L38.199,22.4639148 C40.4101765,22.4639148 41.5023529,21.2005636 41.7222353,19.8555236 C41.9295882,18.59183 41.4942353,17.6870876 40.6512353,17.1075593 L36.7166471,14.3947023 C36.3995294,14.1739541 36.3213529,14.058528 36.3446471,13.894979 C36.3806471,13.6177165 36.6370588,13.5040029 37.0842353,13.5040029 L41.5807059,13.5040029 C42.1328824,13.5040029 42.4447059,12.960952 42.5290588,12.4194424 L42.5290588,11.2218533 L36.5869412,11.2218533 C35.2662353,11.2218533 34.1133529,12.3670383 33.9024706,13.6733745" id="Fill-7" fill="#FFFFFE"></path>
                        <path d="M63.9146471,20.634907 L58.9948235,20.634907 L60.6907059,11.6087193 C60.7282941,11.4253048 60.5901176,11.2218533 60.3573529,11.2218533 L58.1917059,11.2218533 L56.0774118,22.4639148 L64.2307059,22.4639148 L64.4403529,21.3358554 C64.5328235,20.8381872 64.3618235,20.634907 63.9146471,20.634907" id="Fill-8" fill="#FFFFFE"></path>
                        <path d="M130.042941,11.2912118 L129.472412,11.2912118 L123.514235,16.2396369 L124.302882,11.8698838 C124.354235,11.6265299 124.235294,11.4588708 124.134529,11.39191 C124.029353,11.3105636 123.897,11.2703186 123.768176,11.2703186 L123.197118,11.2703186 L121.043118,22.5091262 L122.314059,22.5091262 L123.260118,17.5363829 L127.978588,22.5140926 L128.542765,22.5140926 C128.657647,22.5091262 128.764235,22.4945695 128.857765,22.4289787 C128.958529,22.3558526 129.008647,22.2287811 129.008647,22.1184926 C129.008647,21.9140137 128.837118,21.7115898 128.837118,21.7115898 L124.370647,17.0008672 L130.335,12.0904608 C130.335,12.0904608 130.501588,11.9519152 130.501588,11.6830442 C130.503706,11.5768658 130.453588,11.447568 130.358824,11.3792371 C130.261412,11.3049122 130.147941,11.2912118 130.042941,11.2912118" id="Fill-9" fill="#FFFFFE"></path>
                        <g id="Group-13" transform="translate(110.117647, 11.131602)">
                            <mask id="mask-4" fill="white">
                                <use xlink:href="#path-3"></use>
                            </mask>
                            <g id="Clip-11"></g>
                            <path d="M6.55888235,5.24675203 C5.85088235,5.43050909 4.85682353,5.46441766 3.82552941,5.46441766 C3.45917647,5.45893749 2.94070588,5.45568364 2.48752941,5.45020346 L3.24741176,1.35822667 C3.85129412,1.35582909 5.82158824,1.32757195 6.48882353,1.36165177 C6.75458824,1.37518095 6.99194118,1.39333403 7.13611765,1.42090615 C7.68264706,1.52177558 8.03982353,1.62521385 8.27064706,1.84767463 C9.26911765,2.77022753 8.37335294,4.77186078 6.55888235,5.24675203 Z M5.23852941,0.138716883 L2.25952941,0.138716883 L0.107647059,11.3824909 L1.38123529,11.3824909 L2.28282353,6.54795065 L4.605,6.56096606 L7.49082353,11.3824909 L8.13458824,11.3824909 C8.25052941,11.3824909 8.35482353,11.3629678 8.45064706,11.297377 C8.55123529,11.2242509 8.60170588,11.0971794 8.59729412,10.9868909 C8.59729412,10.8277946 8.43282353,10.5799881 8.43282353,10.5799881 L5.97229412,6.49469022 C8.89429412,6.23951965 9.67147059,4.23891394 9.85058824,3.43915117 C9.99352941,2.79283325 9.95594118,1.73652987 9.44311765,1.16385177 C8.54329412,0.164747706 6.99652941,0.138716883 5.23852941,0.138716883 L5.23852941,0.138716883 Z" id="Fill-10" fill="#FFFFFE" mask="url(#mask-4)"></path>
                            <path d="M24.3723529,0.138716883 C22.1384118,0.1455671 21.9044118,1.92285576 21.8927647,2.76337732 C21.8927647,3.64722649 22.5538235,4.3516 22.8827647,4.63091758 L26.1384706,7.72704416 C26.5249412,8.09353074 26.7153529,8.52406684 26.7153529,8.93165472 C26.7153529,9.61804641 26.1760588,10.1780516 25.3051765,10.1744552 C25.3014706,10.1780516 21.0908824,10.1780516 21.0518824,10.1915808 C20.9105294,10.2167553 20.7700588,10.3926346 20.7723529,10.532379 L20.7584118,10.532379 L20.7723529,10.5394005 L20.7723529,11.3824909 L25.5028235,11.3824909 C27.735,11.3744419 27.9727059,9.59646823 27.9824118,8.75800173 L27.9824118,8.75354909 C27.9824118,7.58849853 26.8794706,6.68889385 26.8747059,6.68889385 L23.7878824,3.74038944 C23.4047647,3.37338909 23.1663529,2.99457212 23.1617647,2.58612797 C23.1663529,1.89545489 23.7022941,1.3434987 24.5756471,1.3434987 C24.5804118,1.3434987 28.8365294,1.33767602 28.8718235,1.32757195 L28.881,1.35822667 L28.8739412,1.32757195 C29.0108824,1.30496623 29.1598235,1.12891567 29.1559412,0.990541299 L29.1559412,0.138716883 L24.3723529,0.138716883" id="Fill-12" fill="#FFFFFE" mask="url(#mask-4)"></path>
                        </g>
                        <path d="M78.7173529,11.2218533 L72.4842353,11.2218533 L72.4524706,11.4016715 C72.3088235,12.1666694 72.3727059,13.0464085 73.6184118,13.0464085 L78.2327647,13.0464085 C80.061,13.0464085 80.7608824,14.3323654 80.3107059,16.741929 C79.8961765,18.9466712 78.6661765,20.634907 76.8058235,20.634907 L74.3006471,20.634907 L75.4937647,14.3130135 L73.3628824,14.3130135 C73.0762941,14.3130135 72.8728235,14.5140674 72.8456471,14.6952556 L71.3823529,22.4604897 L76.266,22.4604897 C79.8741176,22.4604897 82.3886471,20.8188353 83.1622941,16.6590414 C83.7707647,13.4688956 82.3944706,11.2218533 78.7173529,11.2218533" id="Fill-14" fill="#FFFFFE"></path>
                        <path d="M70.0522941,11.2218533 L67.8848824,11.2218533 L65.7670588,22.4604897 L68.3414118,22.4604897 L70.3863529,11.6052942 C70.4214706,11.4253048 70.2841765,11.2218533 70.0522941,11.2218533" id="Fill-15" fill="#FFFFFE"></path>
                        <path d="M108.022412,17.4348284 C107.220176,20.7111157 104.931,21.9289129 102.780176,21.8163981 L102.568412,21.8059515 C100.485176,21.5470133 98.9477647,19.9873903 99.7660588,16.7760088 C100.602882,13.5007491 103.032176,12.2841506 105.158294,12.3966655 C107.268706,12.6057683 108.808059,14.2232757 108.022412,17.4348284 Z M105.451412,11.2487404 L105.451412,11.243089 C101.719941,10.9629152 99.3531176,13.4848223 98.5369412,16.678222 C97.7911765,19.5544566 98.7965294,22.5694081 102.322588,22.9670632 C106.109647,23.2489496 108.483706,20.7268712 109.264765,17.5319302 C109.966765,14.6515855 108.930706,11.6412578 105.451412,11.2487404 L105.451412,11.2487404 Z" id="Fill-16" fill="#FFFFFE"></path>
                        <path d="M98.5369412,11.7143839 C98.5417059,11.6030679 98.4889412,11.4509931 98.3812941,11.3706743 C98.2771765,11.290698 98.1621176,11.2703186 98.0477647,11.2703186 L97.4624118,11.2703186 L92.9675294,21.1577498 L91.7945294,15.8613337 C91.7276471,15.3967177 91.3445294,15.0786965 90.8855294,15.1035285 L90.1311176,15.1035285 L86.5828235,21.1039756 L86.6186471,11.7476074 C86.6186471,11.6224197 86.5699412,11.465721 86.4550588,11.3792371 C86.3451176,11.2912118 86.2208824,11.2703186 86.1005294,11.2703186 L85.3429412,11.2703186 L85.3429412,22.5091262 L86.3274706,22.5091262 C86.6108824,22.5140926 86.8669412,22.4457617 87.0767647,22.2977971 C87.2677059,22.1628478 87.429,21.9787482 87.5742353,21.7561162 L90.6854118,16.3783538 L91.9747059,22.5091262 L92.8113529,22.5091262 C93.3395294,22.5091262 93.7807059,22.2138819 94.0101176,21.7049108 L98.4771176,11.9519152 C98.5111765,11.8736514 98.5369412,11.8224461 98.5369412,11.7143839" id="Fill-17" fill="#FFFFFE"></path>
                    </g>
                </g>
            </g>
        </g>
    </g>
</svg>